<svg xmlns="http://www.w3.org/2000/svg" xmlns:xlink="http://www.w3.org/1999/xlink" width="397" zoomAndPan="magnify" viewBox="0 0 297.12 419.249996" height="559" preserveAspectRatio="xMidYMid meet" version="1.2"><defs><clipPath id="e110ebc34a"><path d="M 1 218 L 22 218 L 22 238.824219 L 1 238.824219 Z M 1 218 "/></clipPath><clipPath id="06e331d757"><path d="M 29 201.515625 L 69 201.515625 L 69 238.824219 L 29 238.824219 Z M 29 201.515625 "/></clipPath><clipPath id="bc5c2aca52"><path d="M 78 201.515625 L 115 201.515625 L 115 238.824219 L 78 238.824219 Z M 78 201.515625 "/></clipPath><clipPath id="edb4f97c2f"><path d="M 123 201.515625 L 163 201.515625 L 163 238.824219 L 123 238.824219 Z M 123 201.515625 "/></clipPath><clipPath id="7819791d71"><path d="M 172 201.515625 L 210 201.515625 L 210 238.824219 L 172 238.824219 Z M 172 201.515625 "/></clipPath><clipPath id="0818eff44d"><path d="M 217 201.515625 L 251 201.515625 L 251 238.824219 L 217 238.824219 Z M 217 201.515625 "/></clipPath><clipPath id="cbcac5089f"><path d="M 259 201.515625 L 295 201.515625 L 295 238.824219 L 259 238.824219 Z M 259 201.515625 "/></clipPath></defs><g id="e84cbbee68"><g clip-rule="nonzero" clip-path="url(#e110ebc34a)"><path style=" stroke:none;fill-rule:nonzero;fill:#f23a1d;fill-opacity:1;" d="M 1.539062 218.304688 L 21.695312 238.824219 L 21.695312 218.304688 Z M 1.539062 218.304688 "/></g><g clip-rule="nonzero" clip-path="url(#06e331d757)"><path style=" stroke:none;fill-rule:nonzero;fill:#12295d;fill-opacity:1;" d="M 64.5625 201.515625 L 49.171875 217.109375 L 33.789062 201.515625 L 29.632812 201.515625 L 29.632812 238.824219 L 37.453125 238.824219 L 37.453125 216.660156 L 49.175781 228.542969 L 60.902344 216.660156 L 60.902344 238.824219 L 68.722656 238.824219 L 68.722656 201.515625 Z M 64.5625 201.515625 "/></g><g clip-rule="nonzero" clip-path="url(#bc5c2aca52)"><path style=" stroke:none;fill-rule:nonzero;fill:#12295d;fill-opacity:1;" d="M 78.496094 201.515625 L 78.496094 238.824219 L 114.527344 238.824219 L 114.527344 231.347656 L 86.402344 231.347656 L 86.402344 222.835938 L 103.863281 222.835938 L 103.863281 215.359375 L 86.402344 215.359375 L 86.402344 209.207031 L 113.003906 209.207031 L 113.003906 201.515625 Z M 78.496094 201.515625 "/></g><g clip-rule="nonzero" clip-path="url(#edb4f97c2f)"><path style=" stroke:none;fill-rule:nonzero;fill:#12295d;fill-opacity:1;" d="M 152.675781 212.480469 C 152.703125 212.015625 152.628906 211.554688 152.453125 211.128906 C 152.277344 210.699219 152.007812 210.320312 151.664062 210.015625 C 150.625 209.40625 149.433594 209.121094 148.234375 209.191406 L 131.464844 209.191406 L 131.464844 216.058594 L 148.234375 216.058594 C 149.847656 216.058594 150.960938 215.757812 151.664062 215.136719 C 152.304688 214.398438 152.660156 213.453125 152.675781 212.472656 M 162.777344 238.804688 L 153.992188 238.804688 L 144.292969 223.550781 L 131.464844 223.550781 L 131.464844 238.824219 L 123.691406 238.824219 L 123.691406 201.515625 L 148.332031 201.515625 C 151.972656 201.515625 154.800781 202.4375 157.023438 204.179688 C 159.449219 206.125 160.660156 208.890625 160.660156 212.480469 C 160.675781 214.828125 159.96875 217.121094 158.636719 219.042969 C 157.253906 220.964844 155.3125 222.398438 153.082031 223.144531 Z M 162.777344 238.804688 "/></g><g clip-rule="nonzero" clip-path="url(#7819791d71)"><path style=" stroke:none;fill-rule:nonzero;fill:#12295d;fill-opacity:1;" d="M 196.953125 201.515625 L 180.527344 215.460938 L 180.527344 201.515625 L 172.550781 201.515625 L 172.550781 238.824219 L 180.511719 238.824219 L 180.511719 224.984375 L 186.125 220.167969 L 199.902344 238.824219 L 209.195312 238.824219 L 191.847656 215.242188 L 207.96875 201.515625 Z M 196.953125 201.515625 "/></g><g clip-rule="nonzero" clip-path="url(#0818eff44d)"><path style=" stroke:none;fill-rule:nonzero;fill:#12295d;fill-opacity:1;" d="M 217.746094 201.515625 L 217.746094 238.824219 L 250.726562 238.824219 L 250.726562 231.347656 L 225.585938 231.347656 L 225.585938 201.515625 Z M 217.746094 201.515625 "/></g><g clip-rule="nonzero" clip-path="url(#cbcac5089f)"><path style=" stroke:none;fill-rule:nonzero;fill:#12295d;fill-opacity:1;" d="M 259.277344 201.515625 L 259.277344 238.824219 L 294.699219 238.824219 L 294.699219 231.347656 L 266.960938 231.347656 L 266.960938 222.839844 L 284.113281 222.839844 L 284.113281 215.363281 L 266.960938 215.363281 L 266.960938 209.207031 L 293.195312 209.207031 L 293.195312 201.515625 Z M 259.277344 201.515625 "/></g></g></svg>